<svg width="22" height="21" viewBox="0 0 22 21" fill="none" xmlns="http://www.w3.org/2000/svg">
<path d="M9.94779 0.671731C10.2591 -0.223829 11.5256 -0.223827 11.8369 0.671733L13.8251 6.39136C13.9624 6.78643 14.3311 7.0543 14.7492 7.06282L20.8033 7.18619C21.7512 7.20551 22.1426 8.41006 21.3871 8.98286L16.5618 12.6412C16.2285 12.8938 16.0876 13.3273 16.2087 13.7276L17.9622 19.5235C18.2368 20.431 17.2121 21.1754 16.4339 20.6339L11.4635 17.1752C11.1202 16.9363 10.6645 16.9363 10.3212 17.1752L5.35082 20.6339C4.57258 21.1754 3.54793 20.431 3.82249 19.5235L5.57596 13.7276C5.69707 13.3273 5.55625 12.8938 5.22295 12.6412L0.39763 8.98286C-0.357903 8.41005 0.0334792 7.20551 0.981403 7.18619L7.03546 7.06282C7.45363 7.0543 7.82232 6.78643 7.95965 6.39136L9.94779 0.671731Z" fill="#FFCC00"/>
</svg>
