<svg width="15" height="18" viewBox="0 0 15 18" fill="none" xmlns="http://www.w3.org/2000/svg">
<path d="M14.5833 5.58333C13.7083 1.73333 10.35 0 7.39998 0C7.39998 0 7.39998 0 7.39165 0C4.44998 0 1.08332 1.725 0.208315 5.575C-0.766685 9.875 1.86665 13.5167 4.24998 15.8083C5.13332 16.6583 6.26665 17.0833 7.39998 17.0833C8.53331 17.0833 9.66665 16.6583 10.5416 15.8083C12.925 13.5167 15.5583 9.88333 14.5833 5.58333ZM7.39998 9.75833C5.94998 9.75833 4.77498 8.58333 4.77498 7.13333C4.77498 5.68333 5.94998 4.50833 7.39998 4.50833C8.84998 4.50833 10.025 5.68333 10.025 7.13333C10.025 8.58333 8.84998 9.75833 7.39998 9.75833Z" fill="#45403D"/>
</svg>
