<svg width="175" height="87" viewBox="0 0 175 87" fill="none" xmlns="http://www.w3.org/2000/svg">
<path d="M2.63566 45.5563L19.6947 73.8633L36.7537 45.5563C38.481 42.561 39.39 39.164 39.3894 35.7063C39.3887 32.2487 38.4785 28.852 36.7501 25.8573C35.0216 22.8626 32.5358 20.3753 29.5422 18.6451C26.5485 16.9149 23.1524 16.0027 19.6947 16C16.237 16.0027 12.8409 16.9149 9.8472 18.6451C6.85355 20.3753 4.36772 22.8626 2.63929 25.8573C0.91085 28.852 0.000636919 32.2487 0 35.7063C-0.000636251 39.164 0.908329 42.561 2.63566 45.5563Z" fill="#FF4433"/>
<path d="M19.6965 42.8659C24.2598 42.8659 27.9592 39.1666 27.9592 34.6033C27.9592 30.0399 24.2598 26.3406 19.6965 26.3406C15.1331 26.3406 11.4338 30.0399 11.4338 34.6033C11.4338 39.1666 15.1331 42.8659 19.6965 42.8659Z" fill="white"/>
<g filter="url(#filter0_d_100_921)">
<rect x="46.3894" y="16" width="108" height="33" rx="16.5" fill="white" shape-rendering="crispEdges"/>
<rect x="46.8894" y="16.5" width="107" height="32" rx="16" stroke="#FF4433" shape-rendering="crispEdges"/>
<path d="M66.9134 31.89C67.5014 32.0767 67.9587 32.38 68.2854 32.8C68.6214 33.2107 68.7894 33.696 68.7894 34.256C68.7894 34.844 68.5981 35.3573 68.2154 35.796C67.8327 36.2253 67.3194 36.5567 66.6754 36.79C66.0407 37.0233 65.3454 37.14 64.5894 37.14C63.9361 37.14 63.2781 37.0513 62.6154 36.874C61.9621 36.6873 61.3554 36.412 60.7954 36.048L61.3834 34.718C61.8127 35.0073 62.2887 35.2313 62.8114 35.39C63.3341 35.5393 63.8521 35.614 64.3654 35.614C65.1027 35.614 65.7141 35.4693 66.1994 35.18C66.6941 34.8907 66.9414 34.494 66.9414 33.99C66.9414 33.5607 66.7641 33.234 66.4094 33.01C66.0547 32.786 65.5647 32.674 64.9394 32.674H62.6574V31.246H64.7994C65.3407 31.246 65.7654 31.134 66.0734 30.91C66.3814 30.686 66.5354 30.3827 66.5354 30C66.5354 29.5427 66.3254 29.188 65.9054 28.936C65.4947 28.684 64.9674 28.558 64.3234 28.558C63.8847 28.558 63.4321 28.6233 62.9654 28.754C62.4987 28.8753 62.0601 29.0573 61.6494 29.3L61.0754 27.83C61.5794 27.5593 62.1114 27.3587 62.6714 27.228C63.2407 27.088 63.8054 27.018 64.3654 27.018C65.0934 27.018 65.7607 27.13 66.3674 27.354C66.9834 27.578 67.4734 27.9 67.8374 28.32C68.2014 28.7307 68.3834 29.216 68.3834 29.776C68.3834 30.2613 68.2527 30.686 67.9914 31.05C67.7301 31.414 67.3707 31.694 66.9134 31.89ZM74.1852 35.614C74.9972 35.614 75.6739 35.3433 76.2152 34.802L77.1392 35.88C76.8125 36.2813 76.3925 36.5847 75.8792 36.79C75.3659 36.9953 74.7872 37.098 74.1432 37.098C73.3219 37.098 72.5985 36.9347 71.9732 36.608C71.3479 36.2813 70.8625 35.8287 70.5172 35.25C70.1812 34.662 70.0132 33.9993 70.0132 33.262C70.0132 32.534 70.1765 31.8807 70.5032 31.302C70.8392 30.714 71.2965 30.2567 71.8752 29.93C72.4632 29.6033 73.1259 29.44 73.8632 29.44C74.5632 29.44 75.1979 29.594 75.7672 29.902C76.3459 30.2007 76.8032 30.6347 77.1392 31.204C77.4752 31.764 77.6432 32.422 77.6432 33.178L71.9172 34.298C72.0945 34.7273 72.3792 35.054 72.7712 35.278C73.1632 35.502 73.6345 35.614 74.1852 35.614ZM73.8632 30.84C73.2192 30.84 72.6965 31.05 72.2952 31.47C71.9032 31.89 71.7072 32.4547 71.7072 33.164V33.178L75.9352 32.366C75.8139 31.9087 75.5665 31.54 75.1932 31.26C74.8292 30.98 74.3859 30.84 73.8632 30.84ZM83.0485 29.44C83.8232 29.44 84.4998 29.5987 85.0785 29.916C85.6665 30.2333 86.1192 30.6813 86.4365 31.26C86.7632 31.8387 86.9265 32.5107 86.9265 33.276C86.9265 34.032 86.7725 34.6993 86.4645 35.278C86.1565 35.8567 85.7225 36.3047 85.1625 36.622C84.6118 36.9393 83.9725 37.098 83.2445 37.098C82.2085 37.098 81.3965 36.7667 80.8085 36.104V39.716H79.0445V33.29C79.0445 32.534 79.2125 31.8667 79.5485 31.288C79.8845 30.7 80.3512 30.2473 80.9485 29.93C81.5552 29.6033 82.2552 29.44 83.0485 29.44ZM82.9785 35.614C83.6318 35.614 84.1638 35.3993 84.5745 34.97C84.9852 34.5313 85.1905 33.9667 85.1905 33.276C85.1905 32.5853 84.9852 32.0207 84.5745 31.582C84.1638 31.1433 83.6318 30.924 82.9785 30.924C82.3158 30.924 81.7838 31.1387 81.3825 31.568C80.9812 31.9973 80.7805 32.562 80.7805 33.262C80.7805 33.962 80.9812 34.5313 81.3825 34.97C81.7932 35.3993 82.3252 35.614 82.9785 35.614ZM88.6767 29.524H90.4267V32.562H94.1927V29.524H95.9427V37H94.1927V34.046H90.4267V37H88.6767V29.524ZM101.536 37.196C100.407 37.196 99.5527 36.9347 98.9741 36.412C98.4047 35.8893 98.1201 35.1333 98.1201 34.144V29.524H99.8561V32.212C100.071 32.0347 100.365 31.8853 100.738 31.764C101.111 31.6427 101.536 31.582 102.012 31.582C102.927 31.582 103.641 31.8153 104.154 32.282C104.667 32.7487 104.924 33.4113 104.924 34.27C104.924 35.1847 104.616 35.9033 104 36.426C103.393 36.9393 102.572 37.196 101.536 37.196ZM105.862 29.524H107.612V37H105.862V29.524ZM101.536 35.908C102.049 35.908 102.446 35.7587 102.726 35.46C103.006 35.152 103.146 34.7647 103.146 34.298C103.146 33.85 103.001 33.4907 102.712 33.22C102.432 32.9493 102.031 32.814 101.508 32.814C101.125 32.814 100.789 32.8887 100.5 33.038C100.22 33.1873 100.005 33.3973 99.8561 33.668V34.298C99.8561 34.802 100.001 35.1987 100.29 35.488C100.579 35.768 100.995 35.908 101.536 35.908ZM120.982 29.524V37H109.964V29.524H111.714V35.516H114.612V29.524H116.362V35.516H119.232V29.524H120.982ZM126.443 34.004H125.085V37H123.335V29.524H125.085V32.548H126.485L128.697 29.524H130.573L127.857 33.122L130.755 37H128.697L126.443 34.004ZM135.075 37.098C134.319 37.098 133.638 36.9347 133.031 36.608C132.424 36.2813 131.948 35.8287 131.603 35.25C131.267 34.662 131.099 33.9993 131.099 33.262C131.099 32.5247 131.267 31.8667 131.603 31.288C131.948 30.7093 132.424 30.2567 133.031 29.93C133.638 29.6033 134.319 29.44 135.075 29.44C135.84 29.44 136.526 29.6033 137.133 29.93C137.74 30.2567 138.211 30.7093 138.547 31.288C138.892 31.8667 139.065 32.5247 139.065 33.262C139.065 33.9993 138.892 34.662 138.547 35.25C138.211 35.8287 137.74 36.2813 137.133 36.608C136.526 36.9347 135.84 37.098 135.075 37.098ZM135.075 35.6C135.719 35.6 136.251 35.3853 136.671 34.956C137.091 34.5267 137.301 33.962 137.301 33.262C137.301 32.562 137.091 31.9973 136.671 31.568C136.251 31.1387 135.719 30.924 135.075 30.924C134.431 30.924 133.899 31.1387 133.479 31.568C133.068 31.9973 132.863 32.562 132.863 33.262C132.863 33.962 133.068 34.5267 133.479 34.956C133.899 35.3853 134.431 35.6 135.075 35.6Z" fill="#FF4433"/>
</g>
<circle cx="19.6948" cy="83.3999" r="2.7769" fill="#FF4433"/>
<defs>
<filter id="filter0_d_100_921" x="26.3894" y="0" width="148" height="73" filterUnits="userSpaceOnUse" color-interpolation-filters="sRGB">
<feFlood flood-opacity="0" result="BackgroundImageFix"/>
<feColorMatrix in="SourceAlpha" type="matrix" values="0 0 0 0 0 0 0 0 0 0 0 0 0 0 0 0 0 0 127 0" result="hardAlpha"/>
<feOffset dy="4"/>
<feGaussianBlur stdDeviation="10"/>
<feComposite in2="hardAlpha" operator="out"/>
<feColorMatrix type="matrix" values="0 0 0 0 1 0 0 0 0 0.266667 0 0 0 0 0.2 0 0 0 0.2 0"/>
<feBlend mode="normal" in2="BackgroundImageFix" result="effect1_dropShadow_100_921"/>
<feBlend mode="normal" in="SourceGraphic" in2="effect1_dropShadow_100_921" result="shape"/>
</filter>
</defs>
</svg>
