<svg width="209" height="24" viewBox="0 0 209 24" fill="none" xmlns="http://www.w3.org/2000/svg">
<path d="M15.648 11.264C16.8854 11.7333 17.856 12.4373 18.56 13.376C19.264 14.3147 19.616 15.392 19.616 16.608C19.616 17.9947 19.1467 19.2 18.208 20.224C17.2694 21.248 16 22.0373 14.4 22.592C12.8 23.1253 11.04 23.392 9.12003 23.392C7.60536 23.392 6.0587 23.2107 4.48003 22.848C2.9227 22.4853 1.42936 21.9413 2.88486e-05 21.216L1.88803 16.8C2.8907 17.312 3.95736 17.7067 5.08803 17.984C6.24003 18.24 7.34936 18.368 8.41603 18.368C9.82403 18.368 10.976 18.144 11.872 17.696C12.768 17.2267 13.216 16.576 13.216 15.744C13.216 15.0827 12.9387 14.592 12.384 14.272C11.8294 13.952 11.0827 13.792 10.144 13.792H4.41603V9.15199H9.63203C10.4854 9.15199 11.1467 8.98132 11.616 8.63999C12.0854 8.29865 12.32 7.83999 12.32 7.26399C12.32 6.53865 11.9574 5.98399 11.232 5.59999C10.5067 5.19465 9.56803 4.99199 8.41603 4.99199C7.47736 4.99199 6.48536 5.13065 5.44003 5.40799C4.3947 5.66399 3.4027 6.03732 2.46403 6.52799L0.608029 1.72799C2.99736 0.575986 5.62136 -1.33514e-05 8.48003 -1.33514e-05C10.3147 -1.33514e-05 12.0107 0.266653 13.568 0.799986C15.1467 1.31199 16.3947 2.05865 17.312 3.03999C18.2507 4.02132 18.72 5.18399 18.72 6.52799C18.72 7.57332 18.4427 8.51199 17.888 9.34399C17.3547 10.1547 16.608 10.7947 15.648 11.264ZM42.146 21.216C40.994 21.8773 39.5967 22.4 37.954 22.784C36.3114 23.168 34.6047 23.36 32.834 23.36C30.4447 23.36 28.4074 23.072 26.722 22.496C25.058 21.92 23.7994 21.12 22.946 20.096C22.114 19.072 21.698 17.888 21.698 16.544C21.698 15.3707 22.018 14.336 22.658 13.44C23.298 12.544 24.1834 11.8507 25.314 11.36C24.4394 10.912 23.7674 10.2933 23.298 9.50399C22.85 8.69332 22.626 7.80799 22.626 6.84799C22.626 5.61065 23.01 4.47999 23.778 3.45599C24.5674 2.43199 25.762 1.61065 27.362 0.991985C28.962 0.373319 30.9354 0.0639858 33.282 0.0639858C34.754 0.0639858 36.2047 0.202653 37.634 0.479986C39.0634 0.75732 40.322 1.13065 41.41 1.59999L39.682 6.33599C37.698 5.46132 35.65 5.02399 33.538 5.02399C32.0234 5.02399 30.8927 5.22665 30.146 5.63199C29.3994 6.01599 29.026 6.55999 29.026 7.26399C29.026 8.54399 29.954 9.18399 31.81 9.18399H38.146V14.016H31.394C30.306 14.016 29.4847 14.1973 28.93 14.56C28.3754 14.9013 28.098 15.4133 28.098 16.096C28.098 16.8213 28.5034 17.3867 29.314 17.792C30.1247 18.1973 31.3834 18.4 33.09 18.4C34.306 18.4 35.554 18.24 36.834 17.92C38.1354 17.5787 39.266 17.12 40.226 16.544L42.146 21.216ZM53.7068 0.287987C56.9494 0.287987 59.4774 1.06665 61.2908 2.62399C63.1041 4.15999 64.0108 6.32532 64.0108 9.11999C64.0108 11.808 63.1894 13.9093 61.5468 15.424C59.9254 16.9173 57.6321 17.664 54.6668 17.664C53.1094 17.664 51.4774 17.3653 49.7708 16.768V22.912H43.5308V9.85599C43.5308 6.76265 44.3948 4.39465 46.1228 2.75199C47.8508 1.10932 50.3788 0.287987 53.7068 0.287987ZM53.6108 13.056C54.9121 13.056 55.9041 12.736 56.5868 12.096C57.2908 11.4347 57.6428 10.4853 57.6428 9.24799C57.6428 8.05332 57.3014 7.11465 56.6188 6.43199C55.9574 5.74932 55.0294 5.40799 53.8348 5.40799C52.5548 5.40799 51.5521 5.79199 50.8268 6.55999C50.1228 7.32799 49.7708 8.40532 49.7708 9.79199V12.032C50.9014 12.7147 52.1814 13.056 53.6108 13.056ZM88.2915 0.511986V22.912H81.9555V14.176H73.3155V22.912H66.9795V0.511986H73.3155V8.92799H81.9555V0.511986H88.2915ZM104.113 7.13599C106.971 7.13599 109.201 7.82932 110.801 9.21599C112.401 10.6027 113.201 12.5653 113.201 15.104C113.201 17.7707 112.294 19.8293 110.481 21.28C108.667 22.7093 106.075 23.424 102.705 23.424C99.3979 23.424 96.9019 22.7093 95.2165 21.28C93.5525 19.8293 92.7205 17.6853 92.7205 14.848V0.511986H98.9605V8.15999C100.731 7.47732 102.449 7.13599 104.113 7.13599ZM121.873 0.511986V22.912H115.601V0.511986H121.873ZM103.025 18.624C104.241 18.624 105.179 18.3253 105.841 17.728C106.502 17.1307 106.833 16.2987 106.833 15.232C106.833 14.1227 106.47 13.28 105.745 12.704C105.041 12.1067 104.059 11.808 102.801 11.808C102.139 11.808 101.467 11.8933 100.785 12.064C100.123 12.2347 99.5152 12.4693 98.9605 12.768V14.688C98.9605 15.9467 99.3125 16.9173 100.017 17.6C100.721 18.2827 101.723 18.624 103.025 18.624ZM157.035 0.511986V22.912H126.667V0.511986H132.907V17.888H138.763V0.511986H145.003V17.888H150.795V0.511986H157.035ZM170.879 14.336H167.999V22.912H161.695V0.511986H167.999V9.21599H171.039L176.383 0.511986H183.039L176.031 11.328L183.103 22.912H175.967L170.879 14.336ZM196.019 23.36C193.651 23.36 191.517 22.8587 189.619 21.856C187.741 20.8533 186.259 19.4667 185.171 17.696C184.104 15.9253 183.571 13.9307 183.571 11.712C183.571 9.49332 184.104 7.49865 185.171 5.72799C186.259 3.95732 187.741 2.57065 189.619 1.56799C191.517 0.565319 193.651 0.0639858 196.019 0.0639858C198.387 0.0639858 200.509 0.565319 202.387 1.56799C204.285 2.57065 205.768 3.95732 206.835 5.72799C207.923 7.49865 208.467 9.49332 208.467 11.712C208.467 13.9307 207.923 15.9253 206.835 17.696C205.768 19.4667 204.285 20.8533 202.387 21.856C200.509 22.8587 198.387 23.36 196.019 23.36ZM196.019 18.112C197.149 18.112 198.173 17.8453 199.091 17.312C200.008 16.7787 200.733 16.032 201.267 15.072C201.8 14.0907 202.067 12.9707 202.067 11.712C202.067 10.4533 201.8 9.34399 201.267 8.38399C200.733 7.40265 200.008 6.64532 199.091 6.11199C198.173 5.57865 197.149 5.31199 196.019 5.31199C194.888 5.31199 193.864 5.57865 192.947 6.11199C192.029 6.64532 191.304 7.40265 190.771 8.38399C190.237 9.34399 189.971 10.4533 189.971 11.712C189.971 12.9707 190.237 14.0907 190.771 15.072C191.304 16.032 192.029 16.7787 192.947 17.312C193.864 17.8453 194.888 18.112 196.019 18.112Z" fill="#45403D"/>
</svg>
